<svg xmlns="http://www.w3.org/2000/svg" fill="none" viewBox="0 0 24 24"><path fill="#A0A0A0" d="M12.19 21h-.38a.77.77 0 01-.53-.21L9 18.57l-.6-.58C6 15.69 2 11.85 2 8.35A5.65 5.65 0 013.69 4.5c1.03-1 2.4-1.54 3.81-1.5 1.7.05 3.3.77 4.5 2.02A6.47 6.47 0 0116.5 3c1.41-.04 2.78.5 3.81 1.5A5.65 5.65 0 0122 8.35c0 3.5-4 7.34-6.4 9.64l-.6.58-2.28 2.22a.77.77 0 01-.53.21zM7.5 4.95c-.9-.03-1.77.31-2.43.95A3.6 3.6 0 004 8.35c0 1.17.72 2.65 2.14 4.41a41.99 41.99 0 003.66 3.86l2.2 2.11 2.2-2.1c1.3-1.21 2.52-2.5 3.66-3.87C19.28 11 20 9.51 20 8.36a3.43 3.43 0 00-3.5-3.41h-.03a5 5 0 00-3.82 2.23.53.53 0 01-.4.2h-.45a.76.76 0 01-.6-.28 5.11 5.11 0 00-3.7-2.15z"/></svg>