<svg xmlns="http://www.w3.org/2000/svg" viewBox="0 0 100 63">
  <path d="M90.3 8.9h-25V2.6h25V9zM48.6 34.4c1.6 2.5 2.4 5.5 2.4 9.1a18.2 18.2 0 01-14.2 18c-2.7.5-5.6.8-8.8.8H0V0h30c7.6 0 13 2.3 16.2 6.6C48 9.3 49 12.5 49 16.2c0 3.8-1 6.8-2.9 9.1-1 1.3-2.6 2.5-4.7 3.6 3.2 1.1 5.6 3 7.2 5.5zm-34.3-9.8h13.2c2.7 0 5-.5 6.6-1.6 1.7-1 2.5-2.8 2.5-5.4 0-3-1-4.8-3.3-5.8-2-.6-4.4-1-7.4-1H14.3v13.8zm23.6 18c0-3.2-1.3-5.5-4-6.7-1.4-.6-3.5-1-6.2-1H14.3v16.6h13.2c2.7 0 4.8-.4 6.3-1.1 2.7-1.4 4-4 4-7.8zm61.7-10.1c.3 2 .4 5 .4 8.8H67.5c.2 4.5 1.8 7.6 4.7 9.4 1.8 1.2 4 1.7 6.4 1.7 2.7 0 4.8-.7 6.5-2 .9-.8 1.7-1.8 2.4-3h11.9c-.3 2.6-1.8 5.2-4.3 8-4 4.3-9.6 6.5-16.8 6.5-6 0-11.2-1.9-15.7-5.5-4.5-3.7-6.8-9.6-6.8-17.9 0-7.7 2-13.6 6.1-17.7 4.1-4.2 9.4-6.2 16-6.2 3.8 0 7.3.7 10.5 2a18 18 0 017.6 6.7 22 22 0 013.6 9.2zm-11.7 1.1a9.7 9.7 0 00-3.1-7 10.2 10.2 0 00-7-2.4c-3 0-5.2.9-6.9 2.5a12 12 0 00-3 7h20z"></path>
</svg>