<svg xmlns="http://www.w3.org/2000/svg" viewBox="0 0 100 100">
  <path d="M50 0a50 50 0 100 100A50 50 0 0050 0zm33 23c6 7.3 9.6 16.6 9.7 26.6-1.4-.3-15.5-3.1-29.7-1.3L62 46c-.8-2-1.8-4.1-2.8-6.1A57.2 57.2 0 0083 23zM50 7.4c10.8 0 20.8 4 28.3 10.7-.8 1.1-7.2 9.7-22.4 15.4-7-12.8-14.7-23.4-16-25 3.3-.7 6.6-1.1 10.1-1.1zm-18.2 4c1.2 1.5 8.8 12 15.9 24.7-20 5.3-37.6 5.2-39.5 5.2a43 43 0 0123.6-30zM7.3 50v-1.3c1.8 0 22.5.3 43.8-6.1a127 127 0 013.5 7.2l-1.7.5a67.9 67.9 0 00-34.7 28.2A42.6 42.6 0 017.2 50zM50 92.7c-9.9 0-19-3.3-26.2-9 .8-1.5 9.4-18.2 33.5-26.7h.3c6 15.5 8.5 28.6 9.1 32.3A42 42 0 0150 92.7zm23.8-7.3c-.4-2.6-2.7-15-8.3-30.4a62.4 62.4 0 0126.6 1.8 42.3 42.3 0 01-18.3 28.6z"></path>
</svg>