<svg xmlns="http://www.w3.org/2000/svg" viewBox="0 0 200 200">
  <path d="M100 0C72.8 0 69.4.3 58.8.8c-10.8.2-18 2-24.3 4.5a49 49 0 00-17.7 11.5A49 49 0 005.2 34.5 73.4 73.4 0 00.6 58.8C.1 69.5 0 72.8 0 100c0 27.2.1 30.6.6 41.2.5 10.7 2.2 18 4.6 24.3a49 49 0 0011.6 17.7 49 49 0 0017.7 11.6 73.4 73.4 0 0024.3 4.6c10.6.5 14 .6 41.2.6 27.1 0 30.5-.1 41.2-.6 10.6-.5 17.9-2.2 24.3-4.6a49 49 0 0017.7-11.6 49 49 0 0011.5-17.7 73.4 73.4 0 004.6-24.3c.5-10.6.6-14 .6-41.2 0-27.1 0-30.5-.6-41.2-.5-10.6-2.1-17.9-4.6-24.3a49 49 0 00-11.5-17.7 49 49 0 00-17.7-11.5A73.4 73.4 0 00141.2.7C130.5.2 127.2 0 100 0zm0 18c26.7 0 29.8.2 40.4.7 9.7.4 15 2 18.5 3.4 4.7 1.8 8 4 11.5 7.5A31 31 0 01178 41c1.4 3.5 3 8.8 3.4 18.5.5 10.6.6 13.7.6 40.4s0 29.9-.6 40.4c-.4 9.8-2 15-3.4 18.6a31 31 0 01-7.5 11.5A31 31 0 01159 178c-3.5 1.3-8.8 3-18.5 3.4-10.6.5-13.7.6-40.4.6s-29.9-.1-40.4-.6c-9.8-.4-15-2-18.6-3.4a31 31 0 01-11.5-7.5A31 31 0 0122 159c-1.3-3.5-3-8.8-3.4-18.6-.5-10.5-.6-13.7-.6-40.4s.1-29.8.6-40.4c.4-9.7 2-15 3.4-18.5 1.9-4.7 4-8 7.5-11.5A31 31 0 0141 22c3.5-1.4 8.8-3 18.6-3.4C70 18.2 73.3 18 100 18z"></path>
  <path d="M100 133.4a33.3 33.3 0 110-66.7 33.3 33.3 0 010 66.7zm0-84.7a51.3 51.3 0 100 102.7 51.3 51.3 0 000-102.7zm65.3-2a12 12 0 11-24 0 12 12 0 0124 0"></path>
</svg>