<svg xmlns="http://www.w3.org/2000/svg" viewBox="0 0 21 17">
  <path d="M6.574 17c7.895 0 12.211-6.54 12.211-12.211 0-.184 0-.368-.017-.552A8.732 8.732 0 0020.91 2.02a8.564 8.564 0 01-2.467.669 4.307 4.307 0 001.89-2.367 8.598 8.598 0 01-2.726 1.037 4.29 4.29 0 00-7.31 3.914A12.178 12.178 0 011.456.791a4.29 4.29 0 001.33 5.73 4.266 4.266 0 01-1.95-.536v.05a4.29 4.29 0 003.438 4.207c-.63.172-1.29.198-1.932.075a4.299 4.299 0 004.014 2.978 8.615 8.615 0 01-5.336 1.84A8.732 8.732 0 010 15.068a12.144 12.144 0 006.574 1.924"></path>
</svg>