<svg xmlns="http://www.w3.org/2000/svg" viewBox="0 0 19.34 22"><g data-name="Group 777"><path fill="#a0a0a0" d="m18.25 20.9-1.77-.97a3.05 3.05 0 0 1-1.25-.49c-.31-.33-.3.17-.3.17l-.09-.33a6.69 6.69 0 0 1-1.51-.7c-.89-.8-.92-2.47-.78-3.81.63-.57 1.43-1.37 1.45-1.89a1.82 1.82 0 0 1 .3-1.13s.63-.1.96-1.36c.1-.4.16-1.52-.31-1.33.12-.6.29-1.32.52-2.63A5.8 5.8 0 0 0 15.44 4a5.15 5.15 0 0 1 .28 1.1 3.56 3.56 0 0 0-.8-2.33 4.85 4.85 0 0 0-2-1.75 3.3 3.3 0 0 1 1.12.45A4.29 4.29 0 0 0 11.9.62 8.05 8.05 0 0 0 9.75.26a5.75 5.75 0 0 0-.66.02 4.15 4.15 0 0 1 1.54-.26A4.3 4.3 0 0 0 8.6.35a2.93 2.93 0 0 0-.96.37 1.59 1.59 0 0 1 .63-.67c-.34.05-.67.48-.92.88a1.63 1.63 0 0 0-.53.8 1.28 1.28 0 0 0-.28-.05 2.4 2.4 0 0 0-1.44.04 3.97 3.97 0 0 1 1-.02 2.04 2.04 0 0 0-1.26.78 2.6 2.6 0 0 0-.82 1.1s.18-.2.39-.4a1.79 1.79 0 0 0-.08.23.62.62 0 0 0-.23.45 2.17 2.17 0 0 1 .18-.25 3.05 3.05 0 0 0-.06.46 2.9 2.9 0 0 0-.17 1.28 4.27 4.27 0 0 1 .17-.96 6.17 6.17 0 0 0 .05.65 3.97 3.97 0 0 0-.03.98 6.37 6.37 0 0 1 .08-.68 18 18 0 0 0 1.1 3.52c-.25-.07-.67-.06-.59.82s-.15.3.51 1.85c.28.65.44.48.51.33-.07.28-.1 1.15 1.39 2.73a6.55 6.55 0 0 1-.49 3.2 7.21 7.21 0 0 1-2.21 1.5l-.43.4-.23-.08c-.24-.09-.7.48-.7.48l-1.37.33L0 22h19.34v-.24c0-.25-1.1-.86-1.1-.86Z" data-name="Path 46"/></g></svg>